<?xml version="1.0" encoding="utf-8"?>
<!-- Generator: Adobe Illustrator 23.0.2, SVG Export Plug-In . SVG Version: 6.00 Build 0)  -->
<svg version="1.1" id="Layer_1" xmlns="http://www.w3.org/2000/svg" xmlns:xlink="http://www.w3.org/1999/xlink" x="0px" y="0px"
	 viewBox="0 0 720 432" style="enable-background:new 0 0 720 432;" xml:space="preserve">
<style type="text/css">
	.st0{fill:url(#SVGID_1_);stroke:url(#SVGID_2_);stroke-miterlimit:10;}
</style>
<g>
	<radialGradient id="SVGID_1_" cx="347.8737" cy="216" r="208.7115" gradientUnits="userSpaceOnUse">
		<stop  offset="0.0587" style="stop-color:#FDD860"/>
		<stop  offset="0.5894" style="stop-color:#EF9824"/>
	</radialGradient>
	<radialGradient id="SVGID_2_" cx="347.8737" cy="216" r="208.7584" gradientUnits="userSpaceOnUse">
		<stop  offset="0.3296" style="stop-color:#FFE26A"/>
		<stop  offset="0.9916" style="stop-color:#FDED00"/>
	</radialGradient>
	<polygon class="st0" points="347.87,111.54 360.99,7.49 360.97,112.36 387.02,10.78 373.85,114.82 412.43,17.31 386.33,118.88 
		436.83,26.97 398.2,124.46 459.82,39.61 409.27,131.49 481.04,55.03 419.38,139.85 500.17,72.99 428.36,149.42 516.89,93.2 
		436.07,160.03 530.95,115.35 442.39,171.52 542.12,139.09 447.22,183.72 550.23,164.04 450.48,196.43 555.14,189.82 452.13,209.44 
		556.79,216 452.13,222.56 555.14,242.18 450.48,235.57 550.23,267.96 447.22,248.28 542.12,292.91 442.39,260.48 530.95,316.65 
		436.07,271.97 516.89,338.8 428.36,282.58 500.17,359.01 419.38,292.15 481.04,376.97 409.27,300.51 459.82,392.39 398.2,307.54 
		436.83,405.03 386.33,313.12 412.43,414.69 373.85,317.18 387.02,421.22 360.97,319.64 360.99,424.51 347.87,320.46 334.76,424.51 
		334.78,319.64 308.73,421.22 321.9,317.18 283.31,414.69 309.42,313.12 258.92,405.03 297.55,307.54 235.93,392.39 286.47,300.51 
		214.7,376.97 276.37,292.15 195.58,359.01 267.39,282.58 178.86,338.8 259.68,271.97 164.8,316.65 253.36,260.48 153.63,292.91 
		248.53,248.28 145.52,267.96 245.27,235.57 140.6,242.18 243.62,222.56 138.96,216 243.62,209.44 140.6,189.82 245.27,196.43 
		145.52,164.04 248.53,183.72 153.63,139.09 253.36,171.52 164.8,115.35 259.68,160.03 178.86,93.2 267.39,149.42 195.58,72.99 
		276.37,139.85 214.7,55.03 286.47,131.49 235.93,39.61 297.55,124.46 258.92,26.97 309.42,118.88 283.31,17.31 321.9,114.82 
		308.73,10.78 334.78,112.36 334.76,7.49 	"/>
</g>
</svg>
